<?xml version="1.0" encoding="iso-8859-1"?>
<!-- Generator: Adobe Illustrator 19.0.0, SVG Export Plug-In . SVG Version: 6.00 Build 0)  -->
<svg version="1.1" id="Capa_1" xmlns="http://www.w3.org/2000/svg" xmlns:xlink="http://www.w3.org/1999/xlink" x="0px" y="0px"
	 viewBox="0 0 512 512" style="enable-background:new 0 0 512 512;" xml:space="preserve">
<path style="fill:#E0230D;" d="M256,0v46.358c115.782,0,209.642,93.86,209.642,209.642S371.782,465.642,256,465.642V512
	c141.385,0,256-114.615,256-256S397.385,0,256,0z"/>
<path style="fill:#FF5440;" d="M256,0C114.615,0,0,114.615,0,256s114.615,256,256,256c124.316,0,225.095-114.615,225.095-256
	S380.316,0,256,0z M256,450.189c-107.248,0-194.189-86.941-194.189-194.189S148.752,61.811,256,61.811S450.189,148.752,450.189,256
	S363.248,450.189,256,450.189z"/>
<g>
</g>
<g>
</g>
<g>
</g>
<g>
</g>
<g>
</g>
<g>
</g>
<g>
</g>
<g>
</g>
<g>
</g>
<g>
</g>
<g>
</g>
<g>
</g>
<g>
</g>
<g>
</g>
<g>
</g>
</svg>
